<?xml version="1.0" encoding="UTF-8" standalone="no"?>
<!-- Created with Inkscape (http://www.inkscape.org/) -->

<svg
   width="8.4666662mm"
   height="8.4666672mm"
   viewBox="0 0 8.4666662 8.4666672"
   version="1.1"
   id="svg1"
   xml:space="preserve"
   xmlns="http://www.w3.org/2000/svg"
   xmlns:svg="http://www.w3.org/2000/svg"><defs
     id="defs1" /><g
     id="layer1"
     transform="translate(-103.17441,-95.022092)"><g
       id="g2"><rect
         style="fill:#000000;fill-opacity:0;stroke-width:0.479393"
         id="rect2"
         width="8.4666662"
         height="8.4666662"
         x="103.17441"
         y="95.022095" /><path
         d="m 104.02107,103.27709 q -0.34925,0 -0.59796,-0.24871 -0.2487,-0.24871 -0.2487,-0.59796 v -4.656659 q 0,-0.34925 0.2487,-0.59796 0.24871,-0.24871 0.59796,-0.24871 h 1.69334 v -0.846663 q 0,-0.34925 0.2487,-0.597958 0.24871,-0.248708 0.59796,-0.248708 h 1.69333 q 0.34925,0 0.59796,0.248708 0.24871,0.248708 0.24871,0.597958 v 0.846663 h 1.69333 q 0.34925,0 0.59796,0.24871 0.24871,0.24871 0.24871,0.59796 v 4.656659 q 0,0.34925 -0.24871,0.59796 -0.24871,0.24871 -0.59796,0.24871 z m 2.54,-6.349999 h 1.69333 v -0.846663 h -1.69333 z"
         id="path1"
         style="fill:#851dab;fill-opacity:1;stroke-width:0.0105833" /></g></g></svg>
