<?xml version="1.0" encoding="UTF-8" standalone="no"?>
<!-- Created with Inkscape (http://www.inkscape.org/) -->

<svg
   width="32mm"
   height="32mm"
   viewBox="0 0 32 32"
   version="1.1"
   id="svg1"
   inkscape:version="1.3.2 (091e20ef0f, 2023-11-25)"
   sodipodi:docname="favicon.svg"
   inkscape:export-filename="favicon.png"
   inkscape:export-xdpi="25.4"
   inkscape:export-ydpi="25.4"
   xmlns:inkscape="http://www.inkscape.org/namespaces/inkscape"
   xmlns:sodipodi="http://sodipodi.sourceforge.net/DTD/sodipodi-0.dtd"
   xmlns="http://www.w3.org/2000/svg"
   xmlns:svg="http://www.w3.org/2000/svg">
  <sodipodi:namedview
     id="namedview1"
     pagecolor="#ffffff"
     bordercolor="#000000"
     borderopacity="0.25"
     inkscape:showpageshadow="2"
     inkscape:pageopacity="0.0"
     inkscape:pagecheckerboard="0"
     inkscape:deskcolor="#d1d1d1"
     inkscape:document-units="mm"
     showgrid="false"
     inkscape:zoom="2.67"
     inkscape:cx="67.41573"
     inkscape:cy="64.044944"
     inkscape:window-width="1366"
     inkscape:window-height="706"
     inkscape:window-x="-8"
     inkscape:window-y="-8"
     inkscape:window-maximized="1"
     inkscape:current-layer="layer1" />
  <defs
     id="defs1">

</defs>
  <g
     inkscape:label="Capa 1"
     inkscape:groupmode="layer"
     id="layer1">
    <path
       style="fill:#b3b3b3;fill-opacity:1;fill-rule:nonzero;stroke:none;stroke-width:0;stroke-linecap:butt;stroke-linejoin:miter;stroke-miterlimit:4;stroke-dasharray:none;stroke-dashoffset:0"
       d="m 5.5,15.328002 q -1.4700026,0 -2.4849991,-0.974396 Q 2,13.37921 2,11.968014 2,10.556822 3.0150009,9.5824223 4.0299974,8.6080267 5.5,8.6080267 q 1.4699991,0 2.4849991,0.9743956 Q 9,10.556822 9,11.968014 9,13.37921 7.9849991,14.353606 6.9699991,15.328002 5.5,15.328002 Z m 6.300001,-5.3759797 q -1.470003,0 -2.4850036,-0.9743956 Q 8.3000009,8.003231 8.3000009,6.5920353 q 0,-1.4111957 1.0149965,-2.3855914 1.0150006,-0.9743958 2.4850036,-0.9743958 1.469998,0 2.484999,0.9743958 1.015001,0.9743957 1.015001,2.3855914 0,1.4111957 -1.015001,2.3855914 -1.015001,0.9743956 -2.484999,0.9743956 z m 8.399998,0 q -1.469998,0 -2.484999,-0.9743956 -1.015001,-0.9743957 -1.015001,-2.3855914 0,-1.4111957 1.015001,-2.3855914 1.015001,-0.9743958 2.484999,-0.9743958 1.469999,0 2.484999,0.9743958 1.015001,0.9743957 1.015001,2.3855914 0,1.4111957 -1.015001,2.3855914 -1.015,0.9743956 -2.484999,0.9743956 z M 26.5,15.328002 q -1.470003,0 -2.484999,-0.974396 Q 23,13.37921 23,11.968014 23,10.556822 24.015001,9.5824223 25.029997,8.6080267 26.5,8.6080267 q 1.469999,0 2.484999,0.9743956 Q 30,10.556822 30,11.968014 30,13.37921 28.984999,14.353606 27.969999,15.328002 26.5,15.328002 Z M 8.5099974,28.767952 q -1.5749991,0 -2.6424974,-1.159194 -1.0674991,-1.159197 -1.0674991,-2.73839 0,-1.747195 1.2425,-3.057591 1.2424991,-1.310391 2.4674965,-2.587188 1.0150008,-1.041596 1.7499996,-2.267994 0.735004,-1.226393 1.75,-2.301589 0.77,-0.873596 1.785001,-1.444796 1.015,-0.571196 2.205002,-0.571196 1.189997,0 2.204998,0.537596 1.015001,0.5376 1.785,1.411196 0.980001,1.075196 1.732502,2.318391 0.752497,1.243196 1.767498,2.318392 1.225002,1.276797 2.467501,2.587188 1.2425,1.310396 1.2425,3.057591 0,1.579193 -1.067499,2.73839 -1.067503,1.159194 -2.642502,1.159194 -1.890001,0 -3.744997,-0.30238 -1.855,-0.30238 -3.745001,-0.30238 -1.890001,0 -3.745001,0.30238 -1.855001,0.30238 -3.7450016,0.30238 z"
       stroke-linecap="round"
       id="path1" />
  </g>
</svg>
