<?xml version="1.0" encoding="UTF-8" standalone="no" ?>
<!DOCTYPE svg PUBLIC "-//W3C//DTD SVG 1.1//EN" "http://www.w3.org/Graphics/SVG/1.1/DTD/svg11.dtd">
<svg xmlns="http://www.w3.org/2000/svg" xmlns:xlink="http://www.w3.org/1999/xlink" version="1.1" width="350" height="112" viewBox="0 0 350 112" xml:space="preserve">
<desc>Created with Fabric.js 5.3.0</desc>
<defs>
	<path id="cola-perro" d="M 90 68 L 100 65 Q 115 55 105 50 95 45 105 40 115 35 105 30" stroke-width="8" stroke-linecap="round" fill="transparent">
		<animate 
			attributeName="d"
			values="
				M 90 68 L 100 65 Q 115 55 105 50 95  45 105 40 115 35 105 30;
				M 90 68 L 90  65 Q 95  55 105 50 115 45 105 40 95  35 105 30;
				M 90 68 L 100 65 Q 115 55 105 50 95  45 105 40 115 35 105 30
			"
			dur="2.5s"
			repeatCount="indefinite"
			begin="-1s"
		/>
	</path>
	<path id="cola-gato" d="M 90 68 L 100 65 Q 115 55 105 50 95 45 105 40 115 35 105 30" stroke-width="8" stroke-linecap="round" fill="transparent">
		<animate 
			attributeName="d"
			values="
				M 90 68 L 100 65 Q 115 55 105 50 95  45 105 40 115 35 105 30;
				M 90 68 L 90  65 Q 95  55 105 50 115 45 105 40 95  35 105 30;
				M 90 68 L 100 65 Q 115 55 105 50 95  45 105 40 115 35 105 30
			"
			dur="2.5s"
			repeatCount="indefinite"
		/>
	</path>
	<rect id="rectangulo-ojos-perro" width="46" height="23" visibility="hidden">
		<animate
			attributeName="visibility"
			values="visible;hidden;hidden;hidden;hidden;hidden;hidden;hidden;hidden;hidden;hidden"
			dur="2s"
			repeatCount="indefinite"
			begin="0.2s"
		/>
	</rect>
	<line id="linea-ojo-perro" x1="0" y1="0" x2="14" y2="0" stroke="rgb(40,40,40)" stroke-width="2" visibility="hidden">
		<animate
			attributeName="visibility"
			values="visible;hidden;hidden;hidden;hidden;hidden;hidden;hidden;hidden;hidden;hidden"
			dur="2s"
			repeatCount="indefinite"
			begin="0.2s"
		/>
	</line>
	<rect id="rectangulo-ojos-gato" width="46" height="23" visibility="hidden">
		<animate
			attributeName="visibility"
			values="visible;hidden;hidden;hidden;hidden;hidden;hidden;hidden;hidden;hidden;hidden"
			dur="2s"
			repeatCount="indefinite"
		/>
	</rect>
	<line id="linea-ojo-gato" x1="0" y1="0" x2="14" y2="0" stroke="rgb(40,40,40)" stroke-width="2" visibility="hidden">
		<animate
			attributeName="visibility"
			values="visible;hidden;hidden;hidden;hidden;hidden;hidden;hidden;hidden;hidden;hidden"
			dur="2s"
			repeatCount="indefinite"
		/>
	</line>
</defs>
<!-- Nubes -->
<g transform="translate(175, 50)" opacity="0.5">
	<g transform="matrix(1.7150000223 0 0 0.4900000064 0 0)" id="c1Z_la5Ytu5tJqjca-LaR"  >
		<path style="stroke: rgb(134,76,189); stroke-width: 0; stroke-dasharray: none; stroke-linecap: butt; stroke-dashoffset: 0; stroke-linejoin: miter; stroke-miterlimit: 4; fill: rgb(107,208,229); fill-rule: nonzero; visibility: hidden;"  transform=" translate(0.000005, 0.000005)" d="M -102.04082 -102.04082 L 102.04081 -102.04082 L 102.04081 102.04081 L -102.04082 102.04081 z" stroke-linecap="round" />
	</g>
	<g transform="matrix(1.019234394 0 0 1.0192344509 -24.5213345506 -17.0214658665)" id="oxY21Qh_Dlm8-r05tR1J4"  >
		<path style="stroke: rgb(255,255,255); stroke-width: 0; stroke-dasharray: none; stroke-linecap: butt; stroke-dashoffset: 0; stroke-linejoin: miter; stroke-miterlimit: 4; fill: rgb(255,255,255); fill-rule: nonzero;"  transform=" translate(-35.40254, -24.563495)" d="M 0 29.04106 C 0 20.77834 6.69826 14.080090000000002 14.96097 14.080090000000002 L 15.22824 14.080090000000002 C 15.8974 6.192840000000002 22.5114 1.7763568394002505e-15 30.57182 1.7763568394002505e-15 L 40.57045 1.7763568394002505e-15 C 48.559200000000004 1.7763568394002505e-15 55.095330000000004 6.219380000000002 55.60109 14.080370000000002 C 64.00668999999999 14.131030000000003 70.80508 20.960700000000003 70.80508 29.378230000000002 L 70.80508 34.16602 C 70.80508 42.428740000000005 64.10682 49.126990000000006 55.84411 49.126990000000006 L 14.623809999999999 49.126990000000006 C 6.5473099999999995 49.126990000000006 0.000009999999999621423 42.57969000000001 0.000009999999999621423 34.50318000000001 z" stroke-linecap="round" />
	</g>
	<g transform="matrix(0.7626571427 0 0 0.7626565356 136.2139657315 -8.0569640799)" id="l-RqNL1wTlQdqiC7jVw4L"  >
		<linearGradient id="SVGID_98" gradientUnits="userSpaceOnUse" gradientTransform="matrix(1 0 0 1 -35.40254 -24.563495)"  x1="0" y1="24.563495000000003" x2="70.80508" y2="24.563495000000003">
			<stop offset="0%" style="stop-color:#FFFFFF;stop-opacity: 1"/>
			<stop offset="50%" style="stop-color:#FFFFFF;stop-opacity: 1"/>
			<stop offset="100%" style="stop-color:#FFFFFF;stop-opacity: 0"/>
		</linearGradient>
		<path style="stroke: rgb(255,255,255); stroke-width: 0; stroke-dasharray: none; stroke-linecap: butt; stroke-dashoffset: 0; stroke-linejoin: miter; stroke-miterlimit: 4; fill: url(#SVGID_98); fill-rule: nonzero;"  transform=" translate(0, 0)" d="M -35.40254 4.47757 C -35.40254 -3.78515 -28.70428 -10.4834 -20.441570000000002 -10.4834 L -20.174300000000002 -10.4834 C -19.50514 -18.370649999999998 -12.891140000000004 -24.56349 -4.830720000000003 -24.56349 L 5.167909999999997 -24.56349 C 13.156659999999997 -24.56349 19.692789999999995 -18.34411 20.198549999999997 -10.483120000000001 C 28.604149999999997 -10.43246 35.402539999999995 -3.6027900000000015 35.402539999999995 4.814739999999999 L 35.402539999999995 9.602529999999998 C 35.402539999999995 17.865249999999996 28.704279999999994 24.563499999999998 20.441569999999995 24.563499999999998 L -20.778730000000007 24.563499999999998 C -28.855230000000006 24.563499999999998 -35.402530000000006 18.016199999999998 -35.402530000000006 9.939689999999997 z" stroke-linecap="round" />
	</g>
	<g transform="matrix(0.7626571427 0 0 0.7626565356 -147.9999999993 1.8755509204)" id="URGjDHBzv-Fbw8foHuG5T"  >
		<linearGradient id="SVGID_105" gradientUnits="userSpaceOnUse" gradientTransform="matrix(1 0 0 1 0 0)"  x1="0" y1="24.563495000000003" x2="70.80508" y2="24.563495000000003">
			<stop offset="0%" style="stop-color:#FFFFFF;stop-opacity: 0"/>
			<stop offset="50%" style="stop-color:#FFFFFF;stop-opacity: 1"/>
			<stop offset="100%" style="stop-color:#FFFFFF;stop-opacity: 1"/>
		</linearGradient>
		<path style="stroke: rgb(255,255,255); stroke-width: 0; stroke-dasharray: none; stroke-linecap: butt; stroke-dashoffset: 0; stroke-linejoin: miter; stroke-miterlimit: 4; fill: url(#SVGID_105); fill-rule: nonzero;"  transform=" translate(-35.40254, -24.563495)" d="M 0 29.04106 C 0 20.77834 6.69826 14.080090000000002 14.96097 14.080090000000002 L 15.22824 14.080090000000002 C 15.8974 6.192840000000002 22.5114 1.7763568394002505e-15 30.57182 1.7763568394002505e-15 L 40.57045 1.7763568394002505e-15 C 48.559200000000004 1.7763568394002505e-15 55.095330000000004 6.219380000000002 55.60109 14.080370000000002 C 64.00668999999999 14.131030000000003 70.80508 20.960700000000003 70.80508 29.378230000000002 L 70.80508 34.16602 C 70.80508 42.428740000000005 64.10682 49.126990000000006 55.84411 49.126990000000006 L 14.623809999999999 49.126990000000006 C 6.5473099999999995 49.126990000000006 0.000009999999999621423 42.57969000000001 0.000009999999999621423 34.50318000000001 z" stroke-linecap="round" />
	</g>
</g>
<!-- Mascotas -->
<g transform="translate(42 ,0)">
	<use href="#cola-perro" stroke="rgb(206,149,47)" x="-130" y="26" transform="scale(-1, 1)" />
	<use href="#cola-gato" stroke="rgb(151,167,158)" x="130" y="26" />
	<g transform="matrix(-1.6212100978 0 0 1.6212101884 106.7916071261 50.9132567066)" id="vkcElkFVdy0EWNNT5dJKN"  >
	<path style="stroke: rgb(0,0,0); stroke-width: 0; stroke-dasharray: none; stroke-linecap: butt; stroke-dashoffset: 0; stroke-linejoin: miter; stroke-miterlimit: 4; fill: rgb(0,0,0); fill-rule: nonzero; opacity: 1;"  transform=" translate(0.000005, 8.086e-7)" d="M 5.81395 -11.54386 C 2.9069700000000003 -13.95684 -2.906979999999999 -5.747260000000001 -5.81396 -0.597760000000001 C -8.720939999999999 4.551739999999999 -8.720939999999999 6.641169999999999 -5.81396 9.05415 C -2.90698 11.467130000000001 2.9069699999999994 14.20365 5.81395 9.05415 C 8.72093 3.90465 8.72093 -9.130880000000001 5.81395 -11.543859999999999 z" stroke-linecap="round" />
	</g>
	<g transform="matrix(1 0 0 1 75.0997889931 63.0380334914)" id="u0HbaCWkWpLZ1mCkMedwQ"  >
	<path style="stroke: rgb(0,0,0); stroke-width: 0; stroke-dasharray: none; stroke-linecap: butt; stroke-dashoffset: 0; stroke-linejoin: miter; stroke-miterlimit: 4; fill: rgb(206,149,47); fill-rule: nonzero; opacity: 1;"  transform=" translate(-40.81414, -36.69406)" d="M 15.45105 13.14244 C 23.94611 4.00989 35.36264 0 43.04802 0 C 50.7334 0 61.64869 4.0099 69.45675 13.14244 C 77.26479 22.274990000000003 74.28023 36.53017 74.28023 36.53017 L 81.4495 72.0343 C 81.52684 72.48491 81.58634 72.9365 81.62828 73.38812 L 0 73.38812 C 0.01943 73.30076 0.03962 73.21348 0.06057 73.12629 C 0.06057 73.12629 6.81597 51.78989 9.06778 36.53017 C 11.319590000000002 21.270449999999997 6.956000000000001 22.27498 15.451060000000002 13.142439999999997 z" stroke-linecap="round" />
	</g>
	<g transform="matrix(0.2464449772 0 0 0.246444991 93.5249432432 59.7697886642)" id="2JeJKc60d0YTOKSDkciS0"  >
	<path style="stroke: rgb(65,148,151); stroke-width: 0; stroke-dasharray: none; stroke-linecap: butt; stroke-dashoffset: 0; stroke-linejoin: miter; stroke-miterlimit: 4; fill: rgb(255,255,255); fill-rule: nonzero; opacity: 1;"  transform=" translate(0, 0)" d="M 0 -41.45937 C 22.88557 -41.45937 41.45937 -22.88557 41.45937 0 C 41.45937 22.88557 22.88557 41.45937 0 41.45937 C -22.88557 41.45937 -41.45937 22.88557 -41.45937 0 C -41.45937 -22.88557 -22.88557 -41.45937 0 -41.45937 z" stroke-linecap="round" />
	</g>
	<g transform="matrix(-0.1175536816 0 0 0.1175536881 95.7893578677 62.0212182287)" id="EUBfeZjTvrXB6QWOzkYZ0"  >
	<path style="stroke: rgb(65,148,151); stroke-width: 0; stroke-dasharray: none; stroke-linecap: butt; stroke-dashoffset: 0; stroke-linejoin: miter; stroke-miterlimit: 4; fill: rgb(0,0,0); fill-rule: nonzero; opacity: 1;"  transform=" translate(0, 0)" d="M 0 -41.45937 C 22.88557 -41.45937 41.45937 -22.88557 41.45937 0 C 41.45937 22.88557 22.88557 41.45937 0 41.45937 C -22.88557 41.45937 -41.45937 22.88557 -41.45937 0 C -41.45937 -22.88557 -22.88557 -41.45937 0 -41.45937 z" stroke-linecap="round" />
	</g>
	<g transform="matrix(1 0 0 1 42.2887594334 73.110207316)" id="nvZ40uJT9GA1gE684rYG9"  >
	<path style="stroke: rgb(0,0,0); stroke-width: 0; stroke-dasharray: none; stroke-linecap: butt; stroke-dashoffset: 0; stroke-linejoin: miter; stroke-miterlimit: 4; fill: rgb(165,119,38); fill-rule: nonzero; opacity: 1;"  transform=" translate(-8.0031279587, -26.621885)" d="M 15.39162 23.07822 C 16.791249999999998 33.77313 15.650789999999999 43.95776 13.47937 52.21705 C 13.38999 52.55701 13.29533 52.89961 13.19578 53.24377 L 0 53.24377 C 0.01943 53.15641 0.03962 53.06913 0.06057 52.981939999999994 C 0.06057 52.981939999999994 7.57069 26.362589999999994 9.06778 16.385819999999995 C 10.56487 6.409029999999996 8.757660000000001 9.132539999999995 11.22221 -3.552713678800501e-15 C 11.22221 -3.552713678800501e-15 13.991990000000001 12.383309999999996 15.39161 23.078219999999998 z" stroke-linecap="round" />
	</g>
	<g transform="matrix(-0.0611852693 0 0 0.0611852728 93.0748579037 59.6842192373)" id="v6KEzzr4RHka1M_K3IOtJ"  >
	<path style="stroke: rgb(65,148,151); stroke-width: 0; stroke-dasharray: none; stroke-linecap: butt; stroke-dashoffset: 0; stroke-linejoin: miter; stroke-miterlimit: 4; fill: rgb(255,255,255); fill-rule: nonzero; opacity: 1;"  transform=" translate(0, 0)" d="M 0 -41.45937 C 22.88557 -41.45937 41.45937 -22.88557 41.45937 0 C 41.45937 22.88557 22.88557 41.45937 0 41.45937 C -22.88557 41.45937 -41.45937 22.88557 -41.45937 0 C -41.45937 -22.88557 -22.88557 -41.45937 0 -41.45937 z" stroke-linecap="round" />
	</g>
	<g transform="matrix(0.2464449772 0 0 0.246444991 70.1955520935 59.7697886642)" id="RTQZw0wr_fr3o0srgcFw3"  >
	<path style="stroke: rgb(65,148,151); stroke-width: 0; stroke-dasharray: none; stroke-linecap: butt; stroke-dashoffset: 0; stroke-linejoin: miter; stroke-miterlimit: 4; fill: rgb(255,255,255); fill-rule: nonzero; opacity: 1;"  transform=" translate(0, 0)" d="M 0 -41.45937 C 22.88557 -41.45937 41.45937 -22.88557 41.45937 0 C 41.45937 22.88557 22.88557 41.45937 0 41.45937 C -22.88557 41.45937 -41.45937 22.88557 -41.45937 0 C -41.45937 -22.88557 -22.88557 -41.45937 0 -41.45937 z" stroke-linecap="round" />
	</g>
	<g transform="matrix(-0.1175536816 0 0 0.1175536881 72.459966718 62.0212182287)" id="eTVHcZlTDwoc7fJKvZJrI"  >
	<path style="stroke: rgb(65,148,151); stroke-width: 0; stroke-dasharray: none; stroke-linecap: butt; stroke-dashoffset: 0; stroke-linejoin: miter; stroke-miterlimit: 4; fill: rgb(0,0,0); fill-rule: nonzero; opacity: 1;"  transform=" translate(0, 0)" d="M 0 -41.45937 C 22.88557 -41.45937 41.45937 -22.88557 41.45937 0 C 41.45937 22.88557 22.88557 41.45937 0 41.45937 C -22.88557 41.45937 -41.45937 22.88557 -41.45937 0 C -41.45937 -22.88557 -22.88557 -41.45937 0 -41.45937 z" stroke-linecap="round" />
	</g>
	<g transform="matrix(-0.0611852693 0 0 0.0611852728 69.745466754 59.6842192373)" id="fRF7-Iso0dd-NUb3V8A2p"  >
	<path style="stroke: rgb(65,148,151); stroke-width: 0; stroke-dasharray: none; stroke-linecap: butt; stroke-dashoffset: 0; stroke-linejoin: miter; stroke-miterlimit: 4; fill: rgb(255,255,255); fill-rule: nonzero; opacity: 1;"  transform=" translate(0, 0)" d="M 0 -41.45937 C 22.88557 -41.45937 41.45937 -22.88557 41.45937 0 C 41.45937 22.88557 22.88557 41.45937 0 41.45937 C -22.88557 41.45937 -41.45937 22.88557 -41.45937 0 C -41.45937 -22.88557 -22.88557 -41.45937 0 -41.45937 z" stroke-linecap="round" />
	</g>
	<g transform="matrix(0.3714966068 0 0 0.4892437824 85.4183524005 83.5282488954)" id="5R9RfM3SKnt1SX4Dj0ERm"  >
	<path style="stroke: rgb(0,0,0); stroke-width: 2; stroke-dasharray: none; stroke-linecap: round; stroke-dashoffset: 0; stroke-linejoin: round; stroke-miterlimit: 10; fill: none; fill-rule: nonzero; opacity: 1;"  transform=" translate(0, 0.0000027755)" d="M -37.06997 -5.82693 C -31.250749999999996 6.81675 -18.534989999999997 11.989159999999998 0 -5.82693 C 12.78786 10.839739999999999 36.42316 8.540890000000001 37.06997 -5.82693" stroke-linecap="round" />
	</g>
	<g transform="matrix(1 0 0 1 184.9002061514 63.0380324001)" id="YmF1zpH9gms-wMB4ZNcs7"  >
	<path style="stroke: rgb(0,0,0); stroke-width: 0; stroke-dasharray: none; stroke-linecap: butt; stroke-dashoffset: 0; stroke-linejoin: miter; stroke-miterlimit: 4; fill: rgb(151,167,158); fill-rule: nonzero; opacity: 1;"  transform=" translate(-40.81414, -36.694055)" d="M 72.5605 12.08741 C 75.02505000000001 21.21995 71.06341 26.55338 72.5605 36.53017 C 74.05759 46.50694 81.56771 73.12629 81.56771 73.12629 C 81.58866 73.21348 81.60885 73.30076 81.62828 73.38811 L 0 73.38811 C 0.04193 72.93648999999999 0.10144 72.4849 0.17878 72.0343 C 0.17878 72.0343 6.31044 45.47925 7.34805 36.53017 C 8.38566 27.5811 5.09045 21.21996 7.34805 12.087409999999998 C 9.60565 2.954869999999998 16.37849 -1.7763568394002505e-15 16.37849 -1.7763568394002505e-15 L 31.25895 12.087409999999998 C 31.25895 12.087409999999998 34.97137 10.074859999999997 39.038109999999996 10.074859999999997 C 43.10485 10.074859999999997 47.525909999999996 12.087409999999998 47.525909999999996 12.087409999999998 L 62.70232 -1.7763568394002505e-15 C 62.70232 -1.7763568394002505e-15 70.09595 2.9548599999999983 72.5605 12.087409999999998 z" stroke-linecap="round" />
	</g>
	<g transform="translate(59, 48)">
		<use href="#rectangulo-ojos-perro" fill="rgb(206,149,47)" />
		<use href="#linea-ojo-perro" x="4" y="12" />
		<use href="#linea-ojo-perro" x="27" y="12" />
	</g>
	<g transform="matrix(1.6212100978 0 0 1.6212101884 48.4280354989 50.9132553957)" id="c3znybjM3vf0EIuEVxMAR"  >
	<path style="stroke: rgb(0,0,0); stroke-width: 0; stroke-dasharray: none; stroke-linecap: butt; stroke-dashoffset: 0; stroke-linejoin: miter; stroke-miterlimit: 4; fill: rgb(0,0,0); fill-rule: nonzero; opacity: 1;"  transform=" translate(0.000005, 8.086e-7)" d="M 5.81395 -11.54386 C 2.9069700000000003 -13.95684 -2.906979999999999 -5.747260000000001 -5.81396 -0.597760000000001 C -8.720939999999999 4.551739999999999 -8.720939999999999 6.641169999999999 -5.81396 9.05415 C -2.90698 11.467130000000001 2.9069699999999994 14.20365 5.81395 9.05415 C 8.72093 3.90465 8.72093 -9.130880000000001 5.81395 -11.543859999999999 z" stroke-linecap="round" />
	</g>
	<g transform="matrix(0.5120695292 0 0 0.2828524429 85.6519381256 75.832929768)" id="WOa3W_aA_ADCoKMY3NuX7"  >
	<path style="stroke: rgb(61,100,78); stroke-width: 0; stroke-dasharray: none; stroke-linecap: butt; stroke-dashoffset: 0; stroke-linejoin: miter; stroke-miterlimit: 4; fill: rgb(0,0,0); fill-rule: nonzero; opacity: 1;"  transform=" translate(0, 0)" d="M 0 -16.6113 C 9.16944 -16.6113 16.6113 -9.16944 16.6113 0 C 16.6113 9.16944 9.16944 16.6113 0 16.6113 C -9.16944 16.6113 -16.6113 9.16944 -16.6113 0 C -16.6113 -9.16944 -9.16944 -16.6113 0 -16.6113 z" stroke-linecap="round" />
	</g>
	<g transform="matrix(0.3161297861 0 0 0.1192645924 85.6643309385 74.7367330956)" id="MwUey0tysf0yaEcs6g14V"  >
	<path style="stroke: rgb(61,100,78); stroke-width: 0; stroke-dasharray: none; stroke-linecap: butt; stroke-dashoffset: 0; stroke-linejoin: miter; stroke-miterlimit: 4; fill: rgb(255,255,255); fill-rule: nonzero; opacity: 0.37;"  transform=" translate(0, 0)" d="M 0 -16.6113 C 9.16944 -16.6113 16.6113 -9.16944 16.6113 0 C 16.6113 9.16944 9.16944 16.6113 0 16.6113 C -9.16944 16.6113 -16.6113 9.16944 -16.6113 0 C -16.6113 -9.16944 -9.16944 -16.6113 0 -16.6113 z" stroke-linecap="round" />
	</g>
	<g transform="matrix(1 0 0 1 217.7112266927 69.6092466006)" id="DkvUUjGoRO9BIR1fX1DGA"  >
	<path style="stroke: rgb(0,0,0); stroke-width: 0; stroke-dasharray: none; stroke-linecap: butt; stroke-dashoffset: 0; stroke-linejoin: miter; stroke-miterlimit: 4; fill: rgb(119,133,126); fill-rule: nonzero; opacity: 1;"  transform=" translate(-8.0031270413, -30.12284)" d="M 0.61465 30.08012 C 2.0142700000000002 19.38521 6.93848 0 6.93848 0 C 9.403030000000001 9.13255 5.44139 13.41094 6.93848 23.38773 C 8.43557 33.3645 15.94569 59.983850000000004 15.94569 59.983850000000004 C 15.96664 60.07104 15.986830000000001 60.15832 16.00626 60.24568000000001 L 2.810480000000002 60.24568000000001 C 2.710920000000002 59.901520000000005 2.616260000000002 59.55892000000001 2.526880000000002 59.21896000000001 C 0.3554600000000021 50.95967000000001 -0.7849999999999979 40.77504000000001 0.614630000000002 30.08013000000001 z" stroke-linecap="round" />
	</g>
	<g transform="matrix(-0.2464449772 0 0 0.246444991 166.4750460364 59.7697886642)" id="xUYyrXwuj884NIUcgtDAz"  >
	<path style="stroke: rgb(65,148,151); stroke-width: 0; stroke-dasharray: none; stroke-linecap: butt; stroke-dashoffset: 0; stroke-linejoin: miter; stroke-miterlimit: 4; fill: rgb(255,255,255); fill-rule: nonzero; opacity: 1;"  transform=" translate(0, 0)" d="M 0 -41.45937 C 22.88557 -41.45937 41.45937 -22.88557 41.45937 0 C 41.45937 22.88557 22.88557 41.45937 0 41.45937 C -22.88557 41.45937 -41.45937 22.88557 -41.45937 0 C -41.45937 -22.88557 -22.88557 -41.45937 0 -41.45937 z" stroke-linecap="round" />
	</g>
	<g transform="matrix(0.1175536816 0 0 0.1175536881 164.210631412 62.0212182287)" id="lcfpmhZH7z1uRaNiCI5lW"  >
	<path style="stroke: rgb(65,148,151); stroke-width: 0; stroke-dasharray: none; stroke-linecap: butt; stroke-dashoffset: 0; stroke-linejoin: miter; stroke-miterlimit: 4; fill: rgb(0,0,0); fill-rule: nonzero; opacity: 1;"  transform=" translate(0, 0)" d="M 0 -41.45937 C 22.88557 -41.45937 41.45937 -22.88557 41.45937 0 C 41.45937 22.88557 22.88557 41.45937 0 41.45937 C -22.88557 41.45937 -41.45937 22.88557 -41.45937 0 C -41.45937 -22.88557 -22.88557 -41.45937 0 -41.45937 z" stroke-linecap="round" />
	</g>
	<g transform="matrix(0.0611852693 0 0 0.0611852728 166.9251313759 59.6842192373)" id="qcwbmUdMh-KYRmKRKe2B5"  >
	<path style="stroke: rgb(65,148,151); stroke-width: 0; stroke-dasharray: none; stroke-linecap: butt; stroke-dashoffset: 0; stroke-linejoin: miter; stroke-miterlimit: 4; fill: rgb(255,255,255); fill-rule: nonzero; opacity: 1;"  transform=" translate(0, 0)" d="M 0 -41.45937 C 22.88557 -41.45937 41.45937 -22.88557 41.45937 0 C 41.45937 22.88557 22.88557 41.45937 0 41.45937 C -22.88557 41.45937 -41.45937 22.88557 -41.45937 0 C -41.45937 -22.88557 -22.88557 -41.45937 0 -41.45937 z" stroke-linecap="round" />
	</g>
	<g transform="matrix(-0.2464449772 0 0 0.246444991 189.8044371861 59.7697886642)" id="nXMaqkkrF5ypTQWmepdbP"  >
	<path style="stroke: rgb(65,148,151); stroke-width: 0; stroke-dasharray: none; stroke-linecap: butt; stroke-dashoffset: 0; stroke-linejoin: miter; stroke-miterlimit: 4; fill: rgb(255,255,255); fill-rule: nonzero; opacity: 1;"  transform=" translate(0, 0)" d="M 0 -41.45937 C 22.88557 -41.45937 41.45937 -22.88557 41.45937 0 C 41.45937 22.88557 22.88557 41.45937 0 41.45937 C -22.88557 41.45937 -41.45937 22.88557 -41.45937 0 C -41.45937 -22.88557 -22.88557 -41.45937 0 -41.45937 z" stroke-linecap="round" />
	</g>
	<g transform="matrix(0.1175536816 0 0 0.1175536881 187.5400225616 62.0212182287)" id="EnVmOOU13qkzUR9LkxEKe"  >
	<path style="stroke: rgb(65,148,151); stroke-width: 0; stroke-dasharray: none; stroke-linecap: butt; stroke-dashoffset: 0; stroke-linejoin: miter; stroke-miterlimit: 4; fill: rgb(0,0,0); fill-rule: nonzero; opacity: 1;"  transform=" translate(0, 0)" d="M 0 -41.45937 C 22.88557 -41.45937 41.45937 -22.88557 41.45937 0 C 41.45937 22.88557 22.88557 41.45937 0 41.45937 C -22.88557 41.45937 -41.45937 22.88557 -41.45937 0 C -41.45937 -22.88557 -22.88557 -41.45937 0 -41.45937 z" stroke-linecap="round" />
	</g>
	<g transform="matrix(0.0611852693 0 0 0.0611852728 190.2545225256 59.6842192373)" id="cgb0hPXsi91kXvFmQ9cen"  >
	<path style="stroke: rgb(65,148,151); stroke-width: 0; stroke-dasharray: none; stroke-linecap: butt; stroke-dashoffset: 0; stroke-linejoin: miter; stroke-miterlimit: 4; fill: rgb(255,255,255); fill-rule: nonzero; opacity: 1;"  transform=" translate(0, 0)" d="M 0 -41.45937 C 22.88557 -41.45937 41.45937 -22.88557 41.45937 0 C 41.45937 22.88557 22.88557 41.45937 0 41.45937 C -22.88557 41.45937 -41.45937 22.88557 -41.45937 0 C -41.45937 -22.88557 -22.88557 -41.45937 0 -41.45937 z" stroke-linecap="round" />
	</g>
	<g transform="matrix(-0.3714966068 0 0 0.4892437824 177.8240570748 81.907038707)" id="UknAoWMgd09sbEoVNInbB"  >
	<path style="stroke: rgb(0,0,0); stroke-width: 2; stroke-dasharray: none; stroke-linecap: round; stroke-dashoffset: 0; stroke-linejoin: round; stroke-miterlimit: 10; fill: none; fill-rule: nonzero; opacity: 1;"  transform=" translate(0, 0.0000027755)" d="M -37.06997 -5.82693 C -31.250749999999996 6.81675 -18.534989999999997 11.989159999999998 0 -5.82693 C 12.78786 10.839739999999999 36.42316 8.540890000000001 37.06997 -5.82693" stroke-linecap="round" />
	</g>
	<g transform="matrix(0.1462542588 0 0 -0.0758069935 177.8240570748 75.4968237737)" id="Dbe2Tu6YuPAZ_lbIlZiru"  >
	<path style="stroke: none; stroke-width: 1; stroke-dasharray: none; stroke-linecap: butt; stroke-dashoffset: 0; stroke-linejoin: miter; stroke-miterlimit: 4; fill: rgb(199,35,128); fill-rule: nonzero; opacity: 1;"  transform=" translate(-40, -40)" d="M 60 40 L 80 80 L 40 80 L 0 80 L 20 40 L 40 0 L 60 40 z" stroke-linecap="round" />
	</g>
	<g transform="matrix(-0.6314373529 0 0 0.6314373882 212.1018284366 75.9095477437)" id="1fia8rwgq3Gi6P20qv1yD"  >
	<path style="stroke: rgb(0,0,0); stroke-width: 2; stroke-dasharray: none; stroke-linecap: round; stroke-dashoffset: 0; stroke-linejoin: round; stroke-miterlimit: 10; fill: none; fill-rule: nonzero; opacity: 1;"  transform=" translate(-282.183908046, -326.111182273)" d="M 263.2163908045977 326.3985385948198 Q 263.21839080459773 326.3985385948198 282.18390804597703 326.1111822729807 L 301.15142528735635 325.8238259511416" stroke-linecap="round" />
	</g>
	<g transform="matrix(-0.612680965 -0.1527585298 -0.1527585213 0.6126809992 212.1018284366 82.2239216264)" id="UwRuy8ESWXv5oNwYziSxB"  >
	<path style="stroke: rgb(0,0,0); stroke-width: 2; stroke-dasharray: none; stroke-linecap: round; stroke-dashoffset: 0; stroke-linejoin: round; stroke-miterlimit: 10; fill: none; fill-rule: nonzero; opacity: 1;"  transform=" translate(-282.183908046, -326.111182273)" d="M 263.2163908045977 326.3985385948198 Q 263.21839080459773 326.3985385948198 282.18390804597703 326.1111822729807 L 301.15142528735635 325.8238259511416" stroke-linecap="round" />
	</g>
	<g transform="matrix(-0.6099216467 0.1634280218 0.1634280126 0.6099216808 212.1018284365 69.5951738609)" id="OzhT-V2AZpKg8m2VvAI0i"  >
	<path style="stroke: rgb(0,0,0); stroke-width: 2; stroke-dasharray: none; stroke-linecap: round; stroke-dashoffset: 0; stroke-linejoin: round; stroke-miterlimit: 10; fill: none; fill-rule: nonzero; opacity: 1;"  transform=" translate(-282.183908046, -326.111182273)" d="M 263.2163908045977 326.3985385948198 Q 263.21839080459773 326.3985385948198 282.18390804597703 326.1111822729807 L 301.15142528735635 325.8238259511416" stroke-linecap="round" />
	</g>
	<g transform="matrix(0.6314373529 0 0 0.6314373882 141.846778998 76.6458146816)" id="qsTC6usVjuO06jIWAIlc7"  >
	<path style="stroke: rgb(0,0,0); stroke-width: 2; stroke-dasharray: none; stroke-linecap: round; stroke-dashoffset: 0; stroke-linejoin: round; stroke-miterlimit: 10; fill: none; fill-rule: nonzero; opacity: 1;"  transform=" translate(-282.183908046, -326.111182273)" d="M 263.2163908045977 326.3985385948198 Q 263.21839080459773 326.3985385948198 282.18390804597703 326.1111822729807 L 301.15142528735635 325.8238259511416" stroke-linecap="round" />
	</g>
	<g transform="matrix(0.612680965 -0.1527585298 0.1527585213 0.6126809992 141.846778998 82.9601885643)" id="67b9KThoHGDnUNZMQrxcw"  >
	<path style="stroke: rgb(0,0,0); stroke-width: 2; stroke-dasharray: none; stroke-linecap: round; stroke-dashoffset: 0; stroke-linejoin: round; stroke-miterlimit: 10; fill: none; fill-rule: nonzero; opacity: 1;"  transform=" translate(-282.183908046, -326.111182273)" d="M 263.2163908045977 326.3985385948198 Q 263.21839080459773 326.3985385948198 282.18390804597703 326.1111822729807 L 301.15142528735635 325.8238259511416" stroke-linecap="round" />
	</g>
	<g transform="matrix(0.6099216467 0.1634280218 -0.1634280126 0.6099216808 141.8467789981 70.3314407987)" id="ca3X7lS8Wn2XiaA_qWTnH"  >
	<path style="stroke: rgb(0,0,0); stroke-width: 2; stroke-dasharray: none; stroke-linecap: round; stroke-dashoffset: 0; stroke-linejoin: round; stroke-miterlimit: 10; fill: none; fill-rule: nonzero; opacity: 1;"  transform=" translate(-282.183908046, -326.111182273)" d="M 263.2163908045977 326.3985385948198 Q 263.21839080459773 326.3985385948198 282.18390804597703 326.1111822729807 L 301.15142528735635 325.8238259511416" stroke-linecap="round" />
	</g>
	<g transform="matrix(-1.3748641369 0.8591105102 0.8591104622 1.3748642138 67.5226729798 95.3911956602)" id="J4ruzsF2mPPpQ8DkPXOSU"  >
	<path style="stroke: rgb(111,123,117); stroke-width: 0; stroke-dasharray: none; stroke-linecap: butt; stroke-dashoffset: 0; stroke-linejoin: miter; stroke-miterlimit: 4; fill: rgb(165,119,38); fill-rule: nonzero; opacity: 1;"  transform=" translate(0, -0.000005)" d="M 0 -3.24682 C 3.12977 -3.24682 5.66988 -0.7067200000000002 5.66988 2.42306 C 5.66988 2.70283 5.64958 2.97788 5.61038 3.24683 C 5.61038 3.24683 2.80519 0 0 0 C -2.80519 0 -5.61039 3.24683 -5.61039 3.24683 C -5.64959 2.97788 -5.66988 2.70283 -5.66988 2.42307 C -5.66988 -0.7067000000000001 -3.1297800000000002 -3.24681 0 -3.24681 z" stroke-linecap="round" />
	</g>
	<g transform="matrix(-1.6212100978 0 0 1.6212101884 71.5245945885 102.0795165114)" id="nhGciQ-NqJcxI_NIgoOFY"  >
	<path style="stroke: rgb(251,238,41); stroke-width: 0; stroke-dasharray: none; stroke-linecap: butt; stroke-dashoffset: 0; stroke-linejoin: miter; stroke-miterlimit: 4; fill: rgb(206,149,47); fill-rule: nonzero; opacity: 1;"  transform=" translate(-5.66988, -5.669885)" d="M 5.66988 0 C 8.79965 0 11.33976 2.5401 11.33976 5.66988 C 11.33976 7.884320000000001 10.06815 9.80357 8.21577 10.73677 L 8.21577 8.80315 L 7.465629999999999 8.80315 L 7.465629999999999 11.049140000000001 C 6.901229999999999 11.237650000000002 6.297409999999999 11.339770000000001 5.669879999999999 11.339770000000001 C 5.167279999999999 11.339770000000001 4.679889999999999 11.274270000000001 4.215769999999999 11.151330000000002 L 4.215769999999999 8.803150000000002 L 3.465629999999999 8.803150000000002 L 3.465629999999999 10.894840000000002 C 1.429759999999999 10.034210000000002 -8.881784197001252e-16 8.018010000000002 -8.881784197001252e-16 5.669890000000002 C -8.881784197001252e-16 2.540120000000002 2.540099999999999 0.000010000000002285958 5.669879999999999 0.000010000000002285958 z" stroke-linecap="round" />
	</g>
	<g transform="matrix(-1.3748641369 0.8591105102 0.8591104622 1.3748642138 93.0035285328 95.3911887859)" id="eJA4lKyDNe8E8B87NhMoL"  >
	<path style="stroke: rgb(111,123,117); stroke-width: 0; stroke-dasharray: none; stroke-linecap: butt; stroke-dashoffset: 0; stroke-linejoin: miter; stroke-miterlimit: 4; fill: rgb(165,119,38); fill-rule: nonzero; opacity: 1;"  transform=" translate(0, -0.000005)" d="M 0 -3.24682 C 3.12977 -3.24682 5.66988 -0.7067200000000002 5.66988 2.42306 C 5.66988 2.70283 5.64958 2.97788 5.61038 3.24683 C 5.61038 3.24683 2.80519 0 0 0 C -2.80519 0 -5.61039 3.24683 -5.61039 3.24683 C -5.64959 2.97788 -5.66988 2.70283 -5.66988 2.42307 C -5.66988 -0.7067000000000001 -3.1297800000000002 -3.24681 0 -3.24681 z" stroke-linecap="round" />
	</g>
	<g transform="matrix(-1.6212100978 0 0 1.6212101884 97.0054544371 102.0795165114)" id="HL8eZsNNqpHcxpvbOqlbd"  >
	<path style="stroke: rgb(251,238,41); stroke-width: 0; stroke-dasharray: none; stroke-linecap: butt; stroke-dashoffset: 0; stroke-linejoin: miter; stroke-miterlimit: 4; fill: rgb(206,149,47); fill-rule: nonzero; opacity: 1;"  transform=" translate(-5.66988, -5.669885)" d="M 5.66988 0 C 8.79965 0 11.33976 2.5401 11.33976 5.66988 C 11.33976 7.884320000000001 10.06815 9.80357 8.21577 10.73677 L 8.21577 8.80315 L 7.465629999999999 8.80315 L 7.465629999999999 11.049140000000001 C 6.901229999999999 11.237650000000002 6.297409999999999 11.339770000000001 5.669879999999999 11.339770000000001 C 5.167279999999999 11.339770000000001 4.679889999999999 11.274270000000001 4.215769999999999 11.151330000000002 L 4.215769999999999 8.803150000000002 L 3.465629999999999 8.803150000000002 L 3.465629999999999 10.894840000000002 C 1.429759999999999 10.034210000000002 -8.881784197001252e-16 8.018010000000002 -8.881784197001252e-16 5.669890000000002 C -8.881784197001252e-16 2.540120000000002 2.540099999999999 0.000010000000002285958 5.669879999999999 0.000010000000002285958 z" stroke-linecap="round" />
	</g>
	<g transform="matrix(1.3748641369 0.8591105102 -0.8591104622 1.3748642138 166.9592327233 95.3911887859)" id="ibA97c6_OgulUyqcDfXCv"  >
	<path style="stroke: rgb(111,123,117); stroke-width: 0; stroke-dasharray: none; stroke-linecap: butt; stroke-dashoffset: 0; stroke-linejoin: miter; stroke-miterlimit: 4; fill: rgb(119,133,126); fill-rule: nonzero; opacity: 1;"  transform=" translate(0, -0.000005)" d="M 0 -3.24682 C 3.12977 -3.24682 5.66988 -0.7067200000000002 5.66988 2.42306 C 5.66988 2.70283 5.64958 2.97788 5.61038 3.24683 C 5.61038 3.24683 2.80519 0 0 0 C -2.80519 0 -5.61039 3.24683 -5.61039 3.24683 C -5.64959 2.97788 -5.66988 2.70283 -5.66988 2.42307 C -5.66988 -0.7067000000000001 -3.1297800000000002 -3.24681 0 -3.24681 z" stroke-linecap="round" />
	</g>
	<g transform="matrix(1.6212100978 0 0 1.6212101884 162.957306819 102.0795165114)" id="n7DaOHed-hOzUVquqhBHb"  >
	<path style="stroke: rgb(251,238,41); stroke-width: 0; stroke-dasharray: none; stroke-linecap: butt; stroke-dashoffset: 0; stroke-linejoin: miter; stroke-miterlimit: 4; fill: rgb(151,167,158); fill-rule: nonzero; opacity: 1;"  transform=" translate(-5.66988, -5.669885)" d="M 5.66988 0 C 8.79965 0 11.33976 2.5401 11.33976 5.66988 C 11.33976 7.884320000000001 10.06815 9.80357 8.21577 10.73677 L 8.21577 8.80315 L 7.465629999999999 8.80315 L 7.465629999999999 11.049140000000001 C 6.901229999999999 11.237650000000002 6.297409999999999 11.339770000000001 5.669879999999999 11.339770000000001 C 5.167279999999999 11.339770000000001 4.679889999999999 11.274270000000001 4.215769999999999 11.151330000000002 L 4.215769999999999 8.803150000000002 L 3.465629999999999 8.803150000000002 L 3.465629999999999 10.894840000000002 C 1.429759999999999 10.034210000000002 -8.881784197001252e-16 8.018010000000002 -8.881784197001252e-16 5.669890000000002 C -8.881784197001252e-16 2.540120000000002 2.540099999999999 0.000010000000002285958 5.669879999999999 0.000010000000002285958 z" stroke-linecap="round" />
	</g>
	<g transform="matrix(1.3748641369 0.8591105102 -0.8591104622 1.3748642138 192.4400925718 95.3911887859)" id="Il_Ly1JvkyBAV6v4KQhXo"  >
	<path style="stroke: rgb(111,123,117); stroke-width: 0; stroke-dasharray: none; stroke-linecap: butt; stroke-dashoffset: 0; stroke-linejoin: miter; stroke-miterlimit: 4; fill: rgb(119,133,126); fill-rule: nonzero; opacity: 1;"  transform=" translate(0, -0.000005)" d="M 0 -3.24682 C 3.12977 -3.24682 5.66988 -0.7067200000000002 5.66988 2.42306 C 5.66988 2.70283 5.64958 2.97788 5.61038 3.24683 C 5.61038 3.24683 2.80519 0 0 0 C -2.80519 0 -5.61039 3.24683 -5.61039 3.24683 C -5.64959 2.97788 -5.66988 2.70283 -5.66988 2.42307 C -5.66988 -0.7067000000000001 -3.1297800000000002 -3.24681 0 -3.24681 z" stroke-linecap="round" />
	</g>
	<g transform="matrix(1.6212100978 0 0 1.6212101884 188.4381666676 102.0795165114)" id="G8x_2ub4MzHFsXDPkyWfC"  >
	<path style="stroke: rgb(251,238,41); stroke-width: 0; stroke-dasharray: none; stroke-linecap: butt; stroke-dashoffset: 0; stroke-linejoin: miter; stroke-miterlimit: 4; fill: rgb(151,167,158); fill-rule: nonzero; opacity: 1;"  transform=" translate(-5.66988, -5.669885)" d="M 5.66988 0 C 8.79965 0 11.33976 2.5401 11.33976 5.66988 C 11.33976 7.884320000000001 10.06815 9.80357 8.21577 10.73677 L 8.21577 8.80315 L 7.465629999999999 8.80315 L 7.465629999999999 11.049140000000001 C 6.901229999999999 11.237650000000002 6.297409999999999 11.339770000000001 5.669879999999999 11.339770000000001 C 5.167279999999999 11.339770000000001 4.679889999999999 11.274270000000001 4.215769999999999 11.151330000000002 L 4.215769999999999 8.803150000000002 L 3.465629999999999 8.803150000000002 L 3.465629999999999 10.894840000000002 C 1.429759999999999 10.034210000000002 -8.881784197001252e-16 8.018010000000002 -8.881784197001252e-16 5.669890000000002 C -8.881784197001252e-16 2.540120000000002 2.540099999999999 0.000010000000002285958 5.669879999999999 0.000010000000002285958 z" stroke-linecap="round" />
	</g>
	<g transform="translate(155, 48)">
		<use href="#rectangulo-ojos-gato" fill="rgb(151,167,158)" />
		<use href="#linea-ojo-gato" x="4" y="12" />
		<use href="#linea-ojo-gato" x="27" y="12" />
	</g>
</g>
</svg>